PathFileType	4	(X/Y/Z)	/Users/itak/Documents/Research/Walk-IL/dataset/trc/00183_00008.trc
DataRate	CameraRate	NumFrames	NumMarkers	Units	OrigDataRate	OrigDataStartFrame	OrigNumFrames
100.000000	100.000000	4	53	mm	100.000000	319	852
Frame#	Time	RPSI			LPSI			L3			STRN			T10			C7			CLAV			RBAK			LBAK			LSHO			LUPA			LAEL			LAOL			LWTS			LWPS			LFRA			LIFD			LHPS			LHTS			RSHO			RUPA			RAEL			RAOL			RWTS			RWPS			RFRA			RIFD			RHTS			RHPS			RBHD			LFHD			RFHD			LBHD			LHIP			RHIP			RASI			LASI			LKNE			LTHI			LANK			LTIP			LTOE			LMT1			LMT5			LHEE			RKNE			RTHI			RANK			RTIP			RTOE			RMT1			RMT5			RHEE			
		X1	Y1	Z1	X2	Y2	Z2	X3	Y3	Z3	X4	Y4	Z4	X5	Y5	Z5	X6	Y6	Z6	X7	Y7	Z7	X8	Y8	Z8	X9	Y9	Z9	X10	Y10	Z10	X11	Y11	Z11	X12	Y12	Z12	X13	Y13	Z13	X14	Y14	Z14	X15	Y15	Z15	X16	Y16	Z16	X17	Y17	Z17	X18	Y18	Z18	X19	Y19	Z19	X20	Y20	Z20	X21	Y21	Z21	X22	Y22	Z22	X23	Y23	Z23	X24	Y24	Z24	X25	Y25	Z25	X26	Y26	Z26	X27	Y27	Z27	X28	Y28	Z28	X29	Y29	Z29	X30	Y30	Z30	X31	Y31	Z31	X32	Y32	Z32	X33	Y33	Z33	X34	Y34	Z34	X35	Y35	Z35	X36	Y36	Z36	X37	Y37	Z37	X38	Y38	Z38	X39	Y39	Z39	X40	Y40	Z40	X41	Y41	Z41	X42	Y42	Z42	X43	Y43	Z43	X44	Y44	Z44	X45	Y45	Z45	X46	Y46	Z46	X47	Y47	Z47	X48	Y48	Z48	X49	Y49	Z49	X50	Y50	Z50	X51	Y51	Z51	X52	Y52	Z52	X53	Y53	Z53	

320	3.19	1007.607299804688	1042.028930664062	-24.58658409118652	893.25830078125	1035.51611328125	22.91547393798828	947.866455078125	1076.64208984375	-0.4757666289806366	838.31494140625	1287.738037109375	-243.1665496826172	933.7091674804688	1233.487426757812	41.96936798095703	879.7518920898438	1500.417236328125	-10.57178783416748	830.9554443359375	1400.856811523438	-210.7189483642578	1016.652709960938	1334.62109375	16.89558029174805	788.28369140625	1468.186767578125	24.98914909362793	694.2027587890625	1453.077026367188	-27.48373031616211	638.3758544921875	1317.11669921875	18.50917625427246	619.2036743164062	1100.071655273438	-8.342805862426758	702.4885864257812	1080.395874023438	12.61092853546143	606.514892578125	914.2830200195312	-187.3105163574219	599.4315795898438	863.9107055664062	-108.8442916870117	601.1038818359375	993.2216796875	-45.98480224609375	617.0480346679688	748.4099731445312	-273.1713562011719	594.2852172851562	805.8291015625	-153.3992614746094	581.0921630859375	841.6360473632812	-216.3499603271484	1034.104858398438	1496.129760742188	-123.3030014038086	1110.652709960938	1437.736328125	-123.1599426269531	1204.080078125	1160.869750976562	-127.0856170654297	1112.905517578125	1141.484985351562	-98.97295379638672	1172.023559570312	944.0264282226562	-281.3472595214844	1234.708374023438	925.5225830078125	-221.7503967285156	1222.568969726562	1091.531127929688	-162.5157928466797	1155.933837890625	759.1888427734375	-314.1455383300781	1180.316528320312	855.3983764648438	-320.4786376953125	1230.818969726562	846.0780029296875	-258.6603088378906	926.0504760742188	1665.874877929688	-82.95536804199219	731.2700805664062	1710.016723632812	-171.5431213378906	848.1320190429688	1726.718139648438	-226.4731292724609	807.59130859375	1654.79638671875	-15.96535301208496	752.7678833007812	963.2520141601562	-29.44881057739258	1065.103759765625	1012.616882324219	-220.1103973388672	980.9308471679688	1037.691284179688	-268.6226806640625	746.3544921875	1005.681579589844	-166.2105102539062	867.2237548828125	472.7394409179688	-122.1111145019531	813.9053344726562	609.8484497070312	-95.58470916748047	1010.962219238281	34.90766143798828	-70.74929046630859	927.5506591796875	248.989013671875	-97.58676910400391	922.7433471679688	39.44116973876953	-272.1957092285156	990.2978515625	35.96045684814453	-254.7458953857422	923.5072021484375	34.8286018371582	-145.8386535644531	1095.288696289062	38.73884201049805	-60.95763397216797	998.405029296875	542.9408569335938	-403.0343017578125	1039.171997070312	808.7520141601562	-338.233642578125	1152.301391601562	86.86811828613281	-260.4965515136719	1007.290222167969	418.240478515625	-399.2132873535156	1052.905517578125	59.76679229736328	-455.1450805664062	1021.984130859375	64.43026733398438	-391.1349487304688	1146.335083007812	64.30389404296875	-373.8226318359375	1105.0537109375	87.86544036865234	-191.6502075195312	
321	3.2	1005.904052734375	1041.549926757812	-33.42045211791992	892.3966674804688	1034.632202148438	16.16767883300781	946.454345703125	1075.860107421875	-8.221778869628906	832.0103759765625	1286.478637695312	-249.2341613769531	932.3583984375	1232.87646484375	34.32004928588867	876.9150390625	1499.6689453125	-17.9315185546875	825.061279296875	1399.695556640625	-216.9576873779297	1014.465209960938	1334.161987304688	7.58132266998291	785.7763061523438	1467.271850585938	19.19143676757812	691.1486206054688	1451.962036132812	-31.76427459716797	635.9588012695312	1315.7138671875	14.10371494293213	616.197998046875	1098.902587890625	-15.0598087310791	699.46337890625	1078.896484375	5.348009586334229	602.5029907226562	914.8514404296875	-195.7044677734375	595.4183349609375	863.7536010742188	-117.7133407592773	597.758544921875	992.2523803710938	-53.4267692565918	612.2321166992188	749.787353515625	-283.1675720214844	589.947509765625	806.1260986328125	-162.7715148925781	576.7515258789062	842.5896606445312	-225.3632507324219	1029.428344726562	1495.278198242188	-133.0336608886719	1106.0732421875	1437.1103515625	-134.0895233154297	1200.241455078125	1160.584716796875	-139.1298065185547	1109.540161132812	1140.871459960938	-109.6176528930664	1166.807495117188	943.1911010742188	-292.315673828125	1230.5009765625	925.1829833984375	-233.5992279052734	1218.471313476562	1091.275390625	-174.6762390136719	1150.845581054688	757.653564453125	-323.9637145996094	1174.8525390625	854.251708984375	-331.1299438476562	1226.447875976562	845.6011962890625	-270.2105102539062	921.97607421875	1664.640380859375	-90.37906646728516	726.693359375	1709.257446289062	-177.6887359619141	843.1754150390625	1725.634155273438	-233.2935028076172	803.9213256835938	1653.812622070312	-22.57016181945801	750.8246459960938	962.1022338867188	-33.21048736572266	1059.237060546875	1011.878112792969	-230.5115203857422	973.97509765625	1037.01611328125	-277.0444641113281	741.1947631835938	1004.672607421875	-170.0439758300781	865.7257690429688	472.1897583007812	-123.5930099487305	812.1510009765625	609.3480834960938	-97.98273468017578	1010.969970703125	35.00473022460938	-70.79035949707031	926.8909912109375	248.8650665283203	-98.26675415039062	922.7001953125	39.54353332519531	-272.1165771484375	990.0951538085938	35.92533493041992	-254.7101287841797	923.3200073242188	34.82555770874023	-145.7725830078125	1095.2939453125	38.83893203735352	-61.24545669555664	984.3090209960938	543.2296752929688	-413.5324401855469	1028.796264648438	808.3839721679688	-348.7411804199219	1135.090576171875	79.91301727294922	-293.3428649902344	991.3735961914062	418.61181640625	-413.747802734375	1026.794677734375	61.69341278076172	-484.3585815429688	998.7725219726562	64.51718902587891	-418.9360656738281	1123.8916015625	61.62788009643555	-407.2085266113281	1090.870483398438	79.08792877197266	-222.3498992919922	
322	3.21	1004.033813476562	1040.9404296875	-42.22008514404297	891.3789672851562	1033.65673828125	9.33478832244873	944.879150390625	1075.001342773438	-16.01054573059082	825.678466796875	1285.190185546875	-255.2740020751953	930.9308471679688	1232.162353515625	26.62607002258301	874.0065307617188	1498.797119140625	-25.2641716003418	819.1163330078125	1398.4951171875	-223.1452941894531	1012.192626953125	1333.649169921875	-1.802609086036682	783.2565307617188	1466.24853515625	13.40462017059326	688.0538330078125	1450.771850585938	-36.02708435058594	633.5639038085938	1314.217529296875	9.739618301391602	613.277587890625	1097.66162109375	-21.70483779907227	696.571533203125	1077.3828125	-1.886229634284973	598.5409545898438	915.1519775390625	-203.8201751708984	591.4957275390625	863.444580078125	-126.2174682617188	594.4982299804688	991.2371826171875	-60.72145843505859	607.45849609375	750.7421264648438	-292.5919799804688	585.6702880859375	806.2184448242188	-171.6936492919922	572.453369140625	843.214111328125	-233.9751586914062	1024.644653320312	1494.371459960938	-142.7153472900391	1101.366821289062	1436.445434570312	-145.0148162841797	1196.210693359375	1160.242309570312	-151.2615356445312	1106.0029296875	1140.192993164062	-120.3600311279297	1161.480590820312	942.181396484375	-303.1953735351562	1226.2001953125	924.7587280273438	-245.3662719726562	1214.195922851562	1090.974853515625	-186.9038238525391	1145.796752929688	756.031494140625	-333.5576171875	1169.291137695312	852.8775634765625	-341.5856018066406	1221.98681640625	844.9832153320312	-281.5737915039062	917.7872314453125	1663.357299804688	-97.79320526123047	722.0135498046875	1708.375	-183.8453674316406	838.0960083007812	1724.449340820312	-240.1174163818359	800.1419677734375	1652.749755859375	-29.18914794921875	748.736572265625	960.8407592773438	-37.05589294433594	1053.248901367188	1011.019714355469	-240.7835540771484	966.9931640625	1036.2724609375	-285.4013061523438	736.0012817382812	1003.630187988281	-173.9340057373047	864.1881713867188	471.6314697265625	-125.1305465698242	810.3477783203125	608.812255859375	-100.3910751342773	1010.986877441406	35.10292434692383	-70.85662078857422	926.2027587890625	248.7536773681641	-98.95594787597656	922.5955200195312	39.58746719360352	-272.0357055664062	989.9088745117188	35.83996200561523	-254.7005004882812	923.1487426757812	34.8314094543457	-145.7034912109375	1095.324096679688	39.01070785522461	-61.48442840576172	970.4918823242188	543.4063720703125	-423.5244140625	1018.390869140625	807.870361328125	-358.8332824707031	1116.095703125	73.45613861083984	-325.3325500488281	975.4132080078125	419.0030212402344	-427.6917114257812	999.482421875	63.88882827758789	-512.1636962890625	974.3447875976562	65.00637054443359	-445.5613403320312	1099.872436523438	59.326171875	-439.3079528808594	1074.83935546875	70.93852996826172	-252.4591979980469	
323	3.22	1001.961181640625	1040.198608398438	-51.01499176025391	890.1831665039062	1032.5966796875	2.423214673995972	943.1102294921875	1074.07275390625	-23.8553638458252	819.318359375	1283.869384765625	-261.3039245605469	929.4032592773438	1231.33544921875	18.88440895080566	871.01220703125	1497.781860351562	-32.55096435546875	813.1376953125	1397.252319335938	-229.2944946289062	1009.843933105469	1333.061889648438	-11.23109722137451	780.7327880859375	1465.119140625	7.627137184143066	684.9304809570312	1449.510864257812	-40.27390289306641	631.1746826171875	1312.629150390625	5.410177707672119	610.4326171875	1096.33203125	-28.2392463684082	693.8326416015625	1075.84814453125	-9.060068130493164	594.6116333007812	915.1803588867188	-211.6437225341797	587.6808471679688	862.9653930664062	-134.3529968261719	591.3211669921875	990.1708374023438	-67.85224914550781	602.7232666015625	751.2940063476562	-301.4784240722656	581.476806640625	806.0897827148438	-180.1676483154297	568.1893310546875	843.507080078125	-242.1800384521484	1019.759826660156	1493.39208984375	-152.3270111083984	1096.537719726562	1435.71435546875	-155.9053039550781	1191.994506835938	1159.820068359375	-163.4604644775391	1102.304809570312	1139.4384765625	-131.1631317138672	1156.034545898438	941.0040283203125	-313.9928588867188	1221.797241210938	924.2393798828125	-257.068115234375	1209.744506835938	1090.609985351562	-199.1842193603516	1140.809326171875	754.3818969726562	-342.995361328125	1163.640869140625	851.3148193359375	-351.8876037597656	1217.432006835938	844.2239379882812	-292.7811889648438	913.48779296875	1662.03125	-105.1972427368164	717.23046875	1707.366821289062	-190.0100708007812	832.895751953125	1723.168090820312	-246.9501190185547	796.262451171875	1651.6083984375	-35.82123565673828	746.5028076171875	959.5068359375	-41.00787734985352	1047.139038085938	1010.050415039062	-250.9321746826172	959.979736328125	1035.436767578125	-293.7091369628906	730.81689453125	1002.540100097656	-177.8923187255859	862.6149291992188	471.0496826171875	-126.7293548583984	808.4855346679688	608.2280883789062	-102.7988433837891	1011.027099609375	35.20319366455078	-70.95754241943359	925.5020141601562	248.6467132568359	-99.65638732910156	922.410400390625	39.49314117431641	-272.001220703125	989.749755859375	35.66754150390625	-254.7244415283203	923.0202026367188	34.8322639465332	-145.6313629150391	1095.386596679688	39.25313949584961	-61.68766403198242	957.0484619140625	543.493408203125	-433.0880126953125	1008.014953613281	807.2214965820312	-368.5458984375	1095.366333007812	67.49546051025391	-356.3291015625	959.512451171875	419.4202270507812	-441.0851745605469	971.0711059570312	66.36116027832031	-538.5164794921875	948.767333984375	65.93807983398438	-470.9496765136719	1074.346923828125	57.36515045166016	-470.0118713378906	1056.966918945312	63.45848846435547	-281.8309936523438	
